%TF.GenerationSoftware,KiCad,Pcbnew,(5.1.10)-1*%
%TF.CreationDate,2021-10-31T22:14:32-07:00*%
%TF.ProjectId,touch_sensor_fp_board,746f7563-685f-4736-956e-736f725f6670,v1.4*%
%TF.SameCoordinates,Original*%
%TF.FileFunction,Legend,Top*%
%TF.FilePolarity,Positive*%
%FSLAX46Y46*%
G04 Gerber Fmt 4.6, Leading zero omitted, Abs format (unit mm)*
G04 Created by KiCad (PCBNEW (5.1.10)-1) date 2021-10-31 22:14:32*
%MOMM*%
%LPD*%
G01*
G04 APERTURE LIST*
%ADD10C,0.120000*%
%ADD11C,0.150000*%
G04 APERTURE END LIST*
D10*
%TO.C,P3*%
X178150000Y-71400000D02*
X178150000Y-67000000D01*
X182550000Y-71400000D02*
X178150000Y-71400000D01*
X182550000Y-67000000D02*
X182550000Y-71400000D01*
X178150000Y-67000000D02*
X182550000Y-67000000D01*
%TO.C,P2*%
X171650000Y-71400000D02*
X171650000Y-67000000D01*
X176050000Y-71400000D02*
X171650000Y-71400000D01*
X176050000Y-67000000D02*
X176050000Y-71400000D01*
X171650000Y-67000000D02*
X176050000Y-67000000D01*
%TO.C,P1*%
X164500000Y-71400000D02*
X164500000Y-67000000D01*
X168900000Y-71400000D02*
X164500000Y-71400000D01*
X168900000Y-67000000D02*
X168900000Y-71400000D01*
X164500000Y-67000000D02*
X168900000Y-67000000D01*
%TO.C,C1*%
X167176665Y-74860000D02*
X167408335Y-74860000D01*
X167176665Y-74140000D02*
X167408335Y-74140000D01*
%TO.C,C2*%
X174351665Y-74265000D02*
X174583335Y-74265000D01*
X174351665Y-74985000D02*
X174583335Y-74985000D01*
%TO.C,C3*%
X180326665Y-73665000D02*
X180558335Y-73665000D01*
X180326665Y-74385000D02*
X180558335Y-74385000D01*
%TO.C,C4*%
X165140000Y-78298335D02*
X165140000Y-78066665D01*
X165860000Y-78298335D02*
X165860000Y-78066665D01*
%TO.C,C5*%
X173035000Y-78298335D02*
X173035000Y-78066665D01*
X172315000Y-78298335D02*
X172315000Y-78066665D01*
%TO.C,C6*%
X179110000Y-77698335D02*
X179110000Y-77466665D01*
X178390000Y-77698335D02*
X178390000Y-77466665D01*
%TO.C,TP1*%
X165125000Y-86625000D02*
X165125000Y-82225000D01*
X169525000Y-86625000D02*
X165125000Y-86625000D01*
X169525000Y-82225000D02*
X169525000Y-86625000D01*
X165125000Y-82225000D02*
X169525000Y-82225000D01*
%TO.C,TP2*%
X171175000Y-82150000D02*
X175575000Y-82150000D01*
X175575000Y-82150000D02*
X175575000Y-86550000D01*
X175575000Y-86550000D02*
X171175000Y-86550000D01*
X171175000Y-86550000D02*
X171175000Y-82150000D01*
%TO.C,TP3*%
X176800000Y-86750000D02*
X176800000Y-82350000D01*
X181200000Y-86750000D02*
X176800000Y-86750000D01*
X181200000Y-82350000D02*
X181200000Y-86750000D01*
X176800000Y-82350000D02*
X181200000Y-82350000D01*
%TO.C,TP4*%
X163400000Y-76250000D02*
X159000000Y-76250000D01*
X163400000Y-71850000D02*
X163400000Y-76250000D01*
X159000000Y-71850000D02*
X163400000Y-71850000D01*
X159000000Y-76250000D02*
X159000000Y-71850000D01*
%TO.C,TP5*%
X159000000Y-81500000D02*
X159000000Y-77100000D01*
X159000000Y-77100000D02*
X163400000Y-77100000D01*
X163400000Y-77100000D02*
X163400000Y-81500000D01*
X163400000Y-81500000D02*
X159000000Y-81500000D01*
%TO.C,TP6*%
X163400000Y-86625000D02*
X159000000Y-86625000D01*
X163400000Y-82225000D02*
X163400000Y-86625000D01*
X159000000Y-82225000D02*
X163400000Y-82225000D01*
X159000000Y-86625000D02*
X159000000Y-82225000D01*
%TO.C,U1*%
X166140000Y-76975000D02*
X166140000Y-78775000D01*
X169360000Y-78775000D02*
X169360000Y-75825000D01*
%TO.C,U2*%
X176535000Y-78775000D02*
X176535000Y-75825000D01*
X173315000Y-76975000D02*
X173315000Y-78775000D01*
%TO.C,U3*%
X179440000Y-76375000D02*
X179440000Y-78175000D01*
X182660000Y-78175000D02*
X182660000Y-75225000D01*
%TO.C,P3*%
D11*
X179611904Y-66754380D02*
X179611904Y-65754380D01*
X179992857Y-65754380D01*
X180088095Y-65802000D01*
X180135714Y-65849619D01*
X180183333Y-65944857D01*
X180183333Y-66087714D01*
X180135714Y-66182952D01*
X180088095Y-66230571D01*
X179992857Y-66278190D01*
X179611904Y-66278190D01*
X180516666Y-65754380D02*
X181135714Y-65754380D01*
X180802380Y-66135333D01*
X180945238Y-66135333D01*
X181040476Y-66182952D01*
X181088095Y-66230571D01*
X181135714Y-66325809D01*
X181135714Y-66563904D01*
X181088095Y-66659142D01*
X181040476Y-66706761D01*
X180945238Y-66754380D01*
X180659523Y-66754380D01*
X180564285Y-66706761D01*
X180516666Y-66659142D01*
%TO.C,P2*%
X173111904Y-66754380D02*
X173111904Y-65754380D01*
X173492857Y-65754380D01*
X173588095Y-65802000D01*
X173635714Y-65849619D01*
X173683333Y-65944857D01*
X173683333Y-66087714D01*
X173635714Y-66182952D01*
X173588095Y-66230571D01*
X173492857Y-66278190D01*
X173111904Y-66278190D01*
X174064285Y-65849619D02*
X174111904Y-65802000D01*
X174207142Y-65754380D01*
X174445238Y-65754380D01*
X174540476Y-65802000D01*
X174588095Y-65849619D01*
X174635714Y-65944857D01*
X174635714Y-66040095D01*
X174588095Y-66182952D01*
X174016666Y-66754380D01*
X174635714Y-66754380D01*
%TO.C,P1*%
X165961904Y-66754380D02*
X165961904Y-65754380D01*
X166342857Y-65754380D01*
X166438095Y-65802000D01*
X166485714Y-65849619D01*
X166533333Y-65944857D01*
X166533333Y-66087714D01*
X166485714Y-66182952D01*
X166438095Y-66230571D01*
X166342857Y-66278190D01*
X165961904Y-66278190D01*
X167485714Y-66754380D02*
X166914285Y-66754380D01*
X167200000Y-66754380D02*
X167200000Y-65754380D01*
X167104761Y-65897238D01*
X167009523Y-65992476D01*
X166914285Y-66040095D01*
%TO.C,C1*%
X169251190Y-74857142D02*
X169203571Y-74904761D01*
X169060714Y-74952380D01*
X168965476Y-74952380D01*
X168822618Y-74904761D01*
X168727380Y-74809523D01*
X168679761Y-74714285D01*
X168632142Y-74523809D01*
X168632142Y-74380952D01*
X168679761Y-74190476D01*
X168727380Y-74095238D01*
X168822618Y-74000000D01*
X168965476Y-73952380D01*
X169060714Y-73952380D01*
X169203571Y-74000000D01*
X169251190Y-74047619D01*
X170203571Y-74952380D02*
X169632142Y-74952380D01*
X169917857Y-74952380D02*
X169917857Y-73952380D01*
X169822618Y-74095238D01*
X169727380Y-74190476D01*
X169632142Y-74238095D01*
%TO.C,C2*%
X176408333Y-74982142D02*
X176360714Y-75029761D01*
X176217857Y-75077380D01*
X176122619Y-75077380D01*
X175979761Y-75029761D01*
X175884523Y-74934523D01*
X175836904Y-74839285D01*
X175789285Y-74648809D01*
X175789285Y-74505952D01*
X175836904Y-74315476D01*
X175884523Y-74220238D01*
X175979761Y-74125000D01*
X176122619Y-74077380D01*
X176217857Y-74077380D01*
X176360714Y-74125000D01*
X176408333Y-74172619D01*
X176789285Y-74172619D02*
X176836904Y-74125000D01*
X176932142Y-74077380D01*
X177170238Y-74077380D01*
X177265476Y-74125000D01*
X177313095Y-74172619D01*
X177360714Y-74267857D01*
X177360714Y-74363095D01*
X177313095Y-74505952D01*
X176741666Y-75077380D01*
X177360714Y-75077380D01*
%TO.C,C3*%
X181858333Y-74307142D02*
X181810714Y-74354761D01*
X181667857Y-74402380D01*
X181572619Y-74402380D01*
X181429761Y-74354761D01*
X181334523Y-74259523D01*
X181286904Y-74164285D01*
X181239285Y-73973809D01*
X181239285Y-73830952D01*
X181286904Y-73640476D01*
X181334523Y-73545238D01*
X181429761Y-73450000D01*
X181572619Y-73402380D01*
X181667857Y-73402380D01*
X181810714Y-73450000D01*
X181858333Y-73497619D01*
X182191666Y-73402380D02*
X182810714Y-73402380D01*
X182477380Y-73783333D01*
X182620238Y-73783333D01*
X182715476Y-73830952D01*
X182763095Y-73878571D01*
X182810714Y-73973809D01*
X182810714Y-74211904D01*
X182763095Y-74307142D01*
X182715476Y-74354761D01*
X182620238Y-74402380D01*
X182334523Y-74402380D01*
X182239285Y-74354761D01*
X182191666Y-74307142D01*
%TO.C,C4*%
X165782142Y-80366666D02*
X165829761Y-80414285D01*
X165877380Y-80557142D01*
X165877380Y-80652380D01*
X165829761Y-80795238D01*
X165734523Y-80890476D01*
X165639285Y-80938095D01*
X165448809Y-80985714D01*
X165305952Y-80985714D01*
X165115476Y-80938095D01*
X165020238Y-80890476D01*
X164925000Y-80795238D01*
X164877380Y-80652380D01*
X164877380Y-80557142D01*
X164925000Y-80414285D01*
X164972619Y-80366666D01*
X165210714Y-79509523D02*
X165877380Y-79509523D01*
X164829761Y-79747619D02*
X165544047Y-79985714D01*
X165544047Y-79366666D01*
%TO.C,C5*%
X173007142Y-80466666D02*
X173054761Y-80514285D01*
X173102380Y-80657142D01*
X173102380Y-80752380D01*
X173054761Y-80895238D01*
X172959523Y-80990476D01*
X172864285Y-81038095D01*
X172673809Y-81085714D01*
X172530952Y-81085714D01*
X172340476Y-81038095D01*
X172245238Y-80990476D01*
X172150000Y-80895238D01*
X172102380Y-80752380D01*
X172102380Y-80657142D01*
X172150000Y-80514285D01*
X172197619Y-80466666D01*
X172102380Y-79561904D02*
X172102380Y-80038095D01*
X172578571Y-80085714D01*
X172530952Y-80038095D01*
X172483333Y-79942857D01*
X172483333Y-79704761D01*
X172530952Y-79609523D01*
X172578571Y-79561904D01*
X172673809Y-79514285D01*
X172911904Y-79514285D01*
X173007142Y-79561904D01*
X173054761Y-79609523D01*
X173102380Y-79704761D01*
X173102380Y-79942857D01*
X173054761Y-80038095D01*
X173007142Y-80085714D01*
%TO.C,C6*%
X179007142Y-80716666D02*
X179054761Y-80764285D01*
X179102380Y-80907142D01*
X179102380Y-81002380D01*
X179054761Y-81145238D01*
X178959523Y-81240476D01*
X178864285Y-81288095D01*
X178673809Y-81335714D01*
X178530952Y-81335714D01*
X178340476Y-81288095D01*
X178245238Y-81240476D01*
X178150000Y-81145238D01*
X178102380Y-81002380D01*
X178102380Y-80907142D01*
X178150000Y-80764285D01*
X178197619Y-80716666D01*
X178102380Y-79859523D02*
X178102380Y-80050000D01*
X178150000Y-80145238D01*
X178197619Y-80192857D01*
X178340476Y-80288095D01*
X178530952Y-80335714D01*
X178911904Y-80335714D01*
X179007142Y-80288095D01*
X179054761Y-80240476D01*
X179102380Y-80145238D01*
X179102380Y-79954761D01*
X179054761Y-79859523D01*
X179007142Y-79811904D01*
X178911904Y-79764285D01*
X178673809Y-79764285D01*
X178578571Y-79811904D01*
X178530952Y-79859523D01*
X178483333Y-79954761D01*
X178483333Y-80145238D01*
X178530952Y-80240476D01*
X178578571Y-80288095D01*
X178673809Y-80335714D01*
%TO.C,TP1*%
X166238095Y-87102380D02*
X166809523Y-87102380D01*
X166523809Y-88102380D02*
X166523809Y-87102380D01*
X167142857Y-88102380D02*
X167142857Y-87102380D01*
X167523809Y-87102380D01*
X167619047Y-87150000D01*
X167666666Y-87197619D01*
X167714285Y-87292857D01*
X167714285Y-87435714D01*
X167666666Y-87530952D01*
X167619047Y-87578571D01*
X167523809Y-87626190D01*
X167142857Y-87626190D01*
X168666666Y-88102380D02*
X168095238Y-88102380D01*
X168380952Y-88102380D02*
X168380952Y-87102380D01*
X168285714Y-87245238D01*
X168190476Y-87340476D01*
X168095238Y-87388095D01*
%TO.C,TP2*%
X172188095Y-87027380D02*
X172759523Y-87027380D01*
X172473809Y-88027380D02*
X172473809Y-87027380D01*
X173092857Y-88027380D02*
X173092857Y-87027380D01*
X173473809Y-87027380D01*
X173569047Y-87075000D01*
X173616666Y-87122619D01*
X173664285Y-87217857D01*
X173664285Y-87360714D01*
X173616666Y-87455952D01*
X173569047Y-87503571D01*
X173473809Y-87551190D01*
X173092857Y-87551190D01*
X174045238Y-87122619D02*
X174092857Y-87075000D01*
X174188095Y-87027380D01*
X174426190Y-87027380D01*
X174521428Y-87075000D01*
X174569047Y-87122619D01*
X174616666Y-87217857D01*
X174616666Y-87313095D01*
X174569047Y-87455952D01*
X173997619Y-88027380D01*
X174616666Y-88027380D01*
%TO.C,TP3*%
X177863095Y-87152380D02*
X178434523Y-87152380D01*
X178148809Y-88152380D02*
X178148809Y-87152380D01*
X178767857Y-88152380D02*
X178767857Y-87152380D01*
X179148809Y-87152380D01*
X179244047Y-87200000D01*
X179291666Y-87247619D01*
X179339285Y-87342857D01*
X179339285Y-87485714D01*
X179291666Y-87580952D01*
X179244047Y-87628571D01*
X179148809Y-87676190D01*
X178767857Y-87676190D01*
X179672619Y-87152380D02*
X180291666Y-87152380D01*
X179958333Y-87533333D01*
X180101190Y-87533333D01*
X180196428Y-87580952D01*
X180244047Y-87628571D01*
X180291666Y-87723809D01*
X180291666Y-87961904D01*
X180244047Y-88057142D01*
X180196428Y-88104761D01*
X180101190Y-88152380D01*
X179815476Y-88152380D01*
X179720238Y-88104761D01*
X179672619Y-88057142D01*
%TO.C,TP4*%
X157754380Y-75311904D02*
X157754380Y-74740476D01*
X158754380Y-75026190D02*
X157754380Y-75026190D01*
X158754380Y-74407142D02*
X157754380Y-74407142D01*
X157754380Y-74026190D01*
X157802000Y-73930952D01*
X157849619Y-73883333D01*
X157944857Y-73835714D01*
X158087714Y-73835714D01*
X158182952Y-73883333D01*
X158230571Y-73930952D01*
X158278190Y-74026190D01*
X158278190Y-74407142D01*
X158087714Y-72978571D02*
X158754380Y-72978571D01*
X157706761Y-73216666D02*
X158421047Y-73454761D01*
X158421047Y-72835714D01*
%TO.C,TP5*%
X157754380Y-80561904D02*
X157754380Y-79990476D01*
X158754380Y-80276190D02*
X157754380Y-80276190D01*
X158754380Y-79657142D02*
X157754380Y-79657142D01*
X157754380Y-79276190D01*
X157802000Y-79180952D01*
X157849619Y-79133333D01*
X157944857Y-79085714D01*
X158087714Y-79085714D01*
X158182952Y-79133333D01*
X158230571Y-79180952D01*
X158278190Y-79276190D01*
X158278190Y-79657142D01*
X157754380Y-78180952D02*
X157754380Y-78657142D01*
X158230571Y-78704761D01*
X158182952Y-78657142D01*
X158135333Y-78561904D01*
X158135333Y-78323809D01*
X158182952Y-78228571D01*
X158230571Y-78180952D01*
X158325809Y-78133333D01*
X158563904Y-78133333D01*
X158659142Y-78180952D01*
X158706761Y-78228571D01*
X158754380Y-78323809D01*
X158754380Y-78561904D01*
X158706761Y-78657142D01*
X158659142Y-78704761D01*
%TO.C,TP6*%
X157754380Y-85686904D02*
X157754380Y-85115476D01*
X158754380Y-85401190D02*
X157754380Y-85401190D01*
X158754380Y-84782142D02*
X157754380Y-84782142D01*
X157754380Y-84401190D01*
X157802000Y-84305952D01*
X157849619Y-84258333D01*
X157944857Y-84210714D01*
X158087714Y-84210714D01*
X158182952Y-84258333D01*
X158230571Y-84305952D01*
X158278190Y-84401190D01*
X158278190Y-84782142D01*
X157754380Y-83353571D02*
X157754380Y-83544047D01*
X157802000Y-83639285D01*
X157849619Y-83686904D01*
X157992476Y-83782142D01*
X158182952Y-83829761D01*
X158563904Y-83829761D01*
X158659142Y-83782142D01*
X158706761Y-83734523D01*
X158754380Y-83639285D01*
X158754380Y-83448809D01*
X158706761Y-83353571D01*
X158659142Y-83305952D01*
X158563904Y-83258333D01*
X158325809Y-83258333D01*
X158230571Y-83305952D01*
X158182952Y-83353571D01*
X158135333Y-83448809D01*
X158135333Y-83639285D01*
X158182952Y-83734523D01*
X158230571Y-83782142D01*
X158325809Y-83829761D01*
%TO.C,U1*%
X166988095Y-80452380D02*
X166988095Y-81261904D01*
X167035714Y-81357142D01*
X167083333Y-81404761D01*
X167178571Y-81452380D01*
X167369047Y-81452380D01*
X167464285Y-81404761D01*
X167511904Y-81357142D01*
X167559523Y-81261904D01*
X167559523Y-80452380D01*
X168559523Y-81452380D02*
X167988095Y-81452380D01*
X168273809Y-81452380D02*
X168273809Y-80452380D01*
X168178571Y-80595238D01*
X168083333Y-80690476D01*
X167988095Y-80738095D01*
%TO.C,U2*%
X174163095Y-80452380D02*
X174163095Y-81261904D01*
X174210714Y-81357142D01*
X174258333Y-81404761D01*
X174353571Y-81452380D01*
X174544047Y-81452380D01*
X174639285Y-81404761D01*
X174686904Y-81357142D01*
X174734523Y-81261904D01*
X174734523Y-80452380D01*
X175163095Y-80547619D02*
X175210714Y-80500000D01*
X175305952Y-80452380D01*
X175544047Y-80452380D01*
X175639285Y-80500000D01*
X175686904Y-80547619D01*
X175734523Y-80642857D01*
X175734523Y-80738095D01*
X175686904Y-80880952D01*
X175115476Y-81452380D01*
X175734523Y-81452380D01*
%TO.C,U3*%
X180288095Y-79927380D02*
X180288095Y-80736904D01*
X180335714Y-80832142D01*
X180383333Y-80879761D01*
X180478571Y-80927380D01*
X180669047Y-80927380D01*
X180764285Y-80879761D01*
X180811904Y-80832142D01*
X180859523Y-80736904D01*
X180859523Y-79927380D01*
X181240476Y-79927380D02*
X181859523Y-79927380D01*
X181526190Y-80308333D01*
X181669047Y-80308333D01*
X181764285Y-80355952D01*
X181811904Y-80403571D01*
X181859523Y-80498809D01*
X181859523Y-80736904D01*
X181811904Y-80832142D01*
X181764285Y-80879761D01*
X181669047Y-80927380D01*
X181383333Y-80927380D01*
X181288095Y-80879761D01*
X181240476Y-80832142D01*
%TD*%
M02*
