%TF.GenerationSoftware,KiCad,Pcbnew,(5.1.10)-1*%
%TF.CreationDate,2021-10-31T22:14:32-07:00*%
%TF.ProjectId,touch_sensor_fp_board,746f7563-685f-4736-956e-736f725f6670,v1.4*%
%TF.SameCoordinates,Original*%
%TF.FileFunction,Paste,Top*%
%TF.FilePolarity,Positive*%
%FSLAX46Y46*%
G04 Gerber Fmt 4.6, Leading zero omitted, Abs format (unit mm)*
G04 Created by KiCad (PCBNEW (5.1.10)-1) date 2021-10-31 22:14:32*
%MOMM*%
%LPD*%
G01*
G04 APERTURE LIST*
%ADD10R,0.650000X1.560000*%
G04 APERTURE END LIST*
%TO.C,C1*%
G36*
G01*
X167492500Y-74655000D02*
X167492500Y-74345000D01*
G75*
G02*
X167647500Y-74190000I155000J0D01*
G01*
X168072500Y-74190000D01*
G75*
G02*
X168227500Y-74345000I0J-155000D01*
G01*
X168227500Y-74655000D01*
G75*
G02*
X168072500Y-74810000I-155000J0D01*
G01*
X167647500Y-74810000D01*
G75*
G02*
X167492500Y-74655000I0J155000D01*
G01*
G37*
G36*
G01*
X166357500Y-74655000D02*
X166357500Y-74345000D01*
G75*
G02*
X166512500Y-74190000I155000J0D01*
G01*
X166937500Y-74190000D01*
G75*
G02*
X167092500Y-74345000I0J-155000D01*
G01*
X167092500Y-74655000D01*
G75*
G02*
X166937500Y-74810000I-155000J0D01*
G01*
X166512500Y-74810000D01*
G75*
G02*
X166357500Y-74655000I0J155000D01*
G01*
G37*
%TD*%
%TO.C,C2*%
G36*
G01*
X173532500Y-74780000D02*
X173532500Y-74470000D01*
G75*
G02*
X173687500Y-74315000I155000J0D01*
G01*
X174112500Y-74315000D01*
G75*
G02*
X174267500Y-74470000I0J-155000D01*
G01*
X174267500Y-74780000D01*
G75*
G02*
X174112500Y-74935000I-155000J0D01*
G01*
X173687500Y-74935000D01*
G75*
G02*
X173532500Y-74780000I0J155000D01*
G01*
G37*
G36*
G01*
X174667500Y-74780000D02*
X174667500Y-74470000D01*
G75*
G02*
X174822500Y-74315000I155000J0D01*
G01*
X175247500Y-74315000D01*
G75*
G02*
X175402500Y-74470000I0J-155000D01*
G01*
X175402500Y-74780000D01*
G75*
G02*
X175247500Y-74935000I-155000J0D01*
G01*
X174822500Y-74935000D01*
G75*
G02*
X174667500Y-74780000I0J155000D01*
G01*
G37*
%TD*%
%TO.C,C3*%
G36*
G01*
X179507500Y-74180000D02*
X179507500Y-73870000D01*
G75*
G02*
X179662500Y-73715000I155000J0D01*
G01*
X180087500Y-73715000D01*
G75*
G02*
X180242500Y-73870000I0J-155000D01*
G01*
X180242500Y-74180000D01*
G75*
G02*
X180087500Y-74335000I-155000J0D01*
G01*
X179662500Y-74335000D01*
G75*
G02*
X179507500Y-74180000I0J155000D01*
G01*
G37*
G36*
G01*
X180642500Y-74180000D02*
X180642500Y-73870000D01*
G75*
G02*
X180797500Y-73715000I155000J0D01*
G01*
X181222500Y-73715000D01*
G75*
G02*
X181377500Y-73870000I0J-155000D01*
G01*
X181377500Y-74180000D01*
G75*
G02*
X181222500Y-74335000I-155000J0D01*
G01*
X180797500Y-74335000D01*
G75*
G02*
X180642500Y-74180000I0J155000D01*
G01*
G37*
%TD*%
%TO.C,C4*%
G36*
G01*
X165655000Y-79117500D02*
X165345000Y-79117500D01*
G75*
G02*
X165190000Y-78962500I0J155000D01*
G01*
X165190000Y-78537500D01*
G75*
G02*
X165345000Y-78382500I155000J0D01*
G01*
X165655000Y-78382500D01*
G75*
G02*
X165810000Y-78537500I0J-155000D01*
G01*
X165810000Y-78962500D01*
G75*
G02*
X165655000Y-79117500I-155000J0D01*
G01*
G37*
G36*
G01*
X165655000Y-77982500D02*
X165345000Y-77982500D01*
G75*
G02*
X165190000Y-77827500I0J155000D01*
G01*
X165190000Y-77402500D01*
G75*
G02*
X165345000Y-77247500I155000J0D01*
G01*
X165655000Y-77247500D01*
G75*
G02*
X165810000Y-77402500I0J-155000D01*
G01*
X165810000Y-77827500D01*
G75*
G02*
X165655000Y-77982500I-155000J0D01*
G01*
G37*
%TD*%
%TO.C,C5*%
G36*
G01*
X172830000Y-77982500D02*
X172520000Y-77982500D01*
G75*
G02*
X172365000Y-77827500I0J155000D01*
G01*
X172365000Y-77402500D01*
G75*
G02*
X172520000Y-77247500I155000J0D01*
G01*
X172830000Y-77247500D01*
G75*
G02*
X172985000Y-77402500I0J-155000D01*
G01*
X172985000Y-77827500D01*
G75*
G02*
X172830000Y-77982500I-155000J0D01*
G01*
G37*
G36*
G01*
X172830000Y-79117500D02*
X172520000Y-79117500D01*
G75*
G02*
X172365000Y-78962500I0J155000D01*
G01*
X172365000Y-78537500D01*
G75*
G02*
X172520000Y-78382500I155000J0D01*
G01*
X172830000Y-78382500D01*
G75*
G02*
X172985000Y-78537500I0J-155000D01*
G01*
X172985000Y-78962500D01*
G75*
G02*
X172830000Y-79117500I-155000J0D01*
G01*
G37*
%TD*%
%TO.C,C6*%
G36*
G01*
X178905000Y-77382500D02*
X178595000Y-77382500D01*
G75*
G02*
X178440000Y-77227500I0J155000D01*
G01*
X178440000Y-76802500D01*
G75*
G02*
X178595000Y-76647500I155000J0D01*
G01*
X178905000Y-76647500D01*
G75*
G02*
X179060000Y-76802500I0J-155000D01*
G01*
X179060000Y-77227500D01*
G75*
G02*
X178905000Y-77382500I-155000J0D01*
G01*
G37*
G36*
G01*
X178905000Y-78517500D02*
X178595000Y-78517500D01*
G75*
G02*
X178440000Y-78362500I0J155000D01*
G01*
X178440000Y-77937500D01*
G75*
G02*
X178595000Y-77782500I155000J0D01*
G01*
X178905000Y-77782500D01*
G75*
G02*
X179060000Y-77937500I0J-155000D01*
G01*
X179060000Y-78362500D01*
G75*
G02*
X178905000Y-78517500I-155000J0D01*
G01*
G37*
%TD*%
D10*
%TO.C,U1*%
X168700000Y-76525000D03*
X167750000Y-76525000D03*
X166800000Y-76525000D03*
X166800000Y-79225000D03*
X168700000Y-79225000D03*
X167750000Y-79225000D03*
%TD*%
%TO.C,U2*%
X174925000Y-79225000D03*
X175875000Y-79225000D03*
X173975000Y-79225000D03*
X173975000Y-76525000D03*
X174925000Y-76525000D03*
X175875000Y-76525000D03*
%TD*%
%TO.C,U3*%
X182000000Y-75925000D03*
X181050000Y-75925000D03*
X180100000Y-75925000D03*
X180100000Y-78625000D03*
X182000000Y-78625000D03*
X181050000Y-78625000D03*
%TD*%
M02*
