%TF.GenerationSoftware,KiCad,Pcbnew,(5.1.10)-1*%
%TF.CreationDate,2021-10-31T22:14:32-07:00*%
%TF.ProjectId,touch_sensor_fp_board,746f7563-685f-4736-956e-736f725f6670,v1.4*%
%TF.SameCoordinates,Original*%
%TF.FileFunction,Copper,L1,Top*%
%TF.FilePolarity,Positive*%
%FSLAX46Y46*%
G04 Gerber Fmt 4.6, Leading zero omitted, Abs format (unit mm)*
G04 Created by KiCad (PCBNEW (5.1.10)-1) date 2021-10-31 22:14:32*
%MOMM*%
%LPD*%
G01*
G04 APERTURE LIST*
%TA.AperFunction,SMDPad,CuDef*%
%ADD10R,4.000000X4.000000*%
%TD*%
%TA.AperFunction,SMDPad,CuDef*%
%ADD11R,0.650000X1.560000*%
%TD*%
%TA.AperFunction,ViaPad*%
%ADD12C,0.800000*%
%TD*%
%TA.AperFunction,Conductor*%
%ADD13C,0.250000*%
%TD*%
%TA.AperFunction,Conductor*%
%ADD14C,0.254000*%
%TD*%
%TA.AperFunction,Conductor*%
%ADD15C,0.100000*%
%TD*%
G04 APERTURE END LIST*
D10*
%TO.P,P3,1*%
%TO.N,Net-(C3-Pad1)*%
X180350000Y-69200000D03*
%TD*%
%TO.P,P2,1*%
%TO.N,Net-(C2-Pad1)*%
X173850000Y-69200000D03*
%TD*%
%TO.P,P1,1*%
%TO.N,Net-(C1-Pad1)*%
X166700000Y-69200000D03*
%TD*%
%TO.P,C1,2*%
%TO.N,GNDREF*%
%TA.AperFunction,SMDPad,CuDef*%
G36*
G01*
X167492500Y-74655000D02*
X167492500Y-74345000D01*
G75*
G02*
X167647500Y-74190000I155000J0D01*
G01*
X168072500Y-74190000D01*
G75*
G02*
X168227500Y-74345000I0J-155000D01*
G01*
X168227500Y-74655000D01*
G75*
G02*
X168072500Y-74810000I-155000J0D01*
G01*
X167647500Y-74810000D01*
G75*
G02*
X167492500Y-74655000I0J155000D01*
G01*
G37*
%TD.AperFunction*%
%TO.P,C1,1*%
%TO.N,Net-(C1-Pad1)*%
%TA.AperFunction,SMDPad,CuDef*%
G36*
G01*
X166357500Y-74655000D02*
X166357500Y-74345000D01*
G75*
G02*
X166512500Y-74190000I155000J0D01*
G01*
X166937500Y-74190000D01*
G75*
G02*
X167092500Y-74345000I0J-155000D01*
G01*
X167092500Y-74655000D01*
G75*
G02*
X166937500Y-74810000I-155000J0D01*
G01*
X166512500Y-74810000D01*
G75*
G02*
X166357500Y-74655000I0J155000D01*
G01*
G37*
%TD.AperFunction*%
%TD*%
%TO.P,C2,1*%
%TO.N,Net-(C2-Pad1)*%
%TA.AperFunction,SMDPad,CuDef*%
G36*
G01*
X173532500Y-74780000D02*
X173532500Y-74470000D01*
G75*
G02*
X173687500Y-74315000I155000J0D01*
G01*
X174112500Y-74315000D01*
G75*
G02*
X174267500Y-74470000I0J-155000D01*
G01*
X174267500Y-74780000D01*
G75*
G02*
X174112500Y-74935000I-155000J0D01*
G01*
X173687500Y-74935000D01*
G75*
G02*
X173532500Y-74780000I0J155000D01*
G01*
G37*
%TD.AperFunction*%
%TO.P,C2,2*%
%TO.N,GNDREF*%
%TA.AperFunction,SMDPad,CuDef*%
G36*
G01*
X174667500Y-74780000D02*
X174667500Y-74470000D01*
G75*
G02*
X174822500Y-74315000I155000J0D01*
G01*
X175247500Y-74315000D01*
G75*
G02*
X175402500Y-74470000I0J-155000D01*
G01*
X175402500Y-74780000D01*
G75*
G02*
X175247500Y-74935000I-155000J0D01*
G01*
X174822500Y-74935000D01*
G75*
G02*
X174667500Y-74780000I0J155000D01*
G01*
G37*
%TD.AperFunction*%
%TD*%
%TO.P,C3,1*%
%TO.N,Net-(C3-Pad1)*%
%TA.AperFunction,SMDPad,CuDef*%
G36*
G01*
X179507500Y-74180000D02*
X179507500Y-73870000D01*
G75*
G02*
X179662500Y-73715000I155000J0D01*
G01*
X180087500Y-73715000D01*
G75*
G02*
X180242500Y-73870000I0J-155000D01*
G01*
X180242500Y-74180000D01*
G75*
G02*
X180087500Y-74335000I-155000J0D01*
G01*
X179662500Y-74335000D01*
G75*
G02*
X179507500Y-74180000I0J155000D01*
G01*
G37*
%TD.AperFunction*%
%TO.P,C3,2*%
%TO.N,GNDREF*%
%TA.AperFunction,SMDPad,CuDef*%
G36*
G01*
X180642500Y-74180000D02*
X180642500Y-73870000D01*
G75*
G02*
X180797500Y-73715000I155000J0D01*
G01*
X181222500Y-73715000D01*
G75*
G02*
X181377500Y-73870000I0J-155000D01*
G01*
X181377500Y-74180000D01*
G75*
G02*
X181222500Y-74335000I-155000J0D01*
G01*
X180797500Y-74335000D01*
G75*
G02*
X180642500Y-74180000I0J155000D01*
G01*
G37*
%TD.AperFunction*%
%TD*%
%TO.P,C4,1*%
%TO.N,+3V3*%
%TA.AperFunction,SMDPad,CuDef*%
G36*
G01*
X165655000Y-79117500D02*
X165345000Y-79117500D01*
G75*
G02*
X165190000Y-78962500I0J155000D01*
G01*
X165190000Y-78537500D01*
G75*
G02*
X165345000Y-78382500I155000J0D01*
G01*
X165655000Y-78382500D01*
G75*
G02*
X165810000Y-78537500I0J-155000D01*
G01*
X165810000Y-78962500D01*
G75*
G02*
X165655000Y-79117500I-155000J0D01*
G01*
G37*
%TD.AperFunction*%
%TO.P,C4,2*%
%TO.N,GNDREF*%
%TA.AperFunction,SMDPad,CuDef*%
G36*
G01*
X165655000Y-77982500D02*
X165345000Y-77982500D01*
G75*
G02*
X165190000Y-77827500I0J155000D01*
G01*
X165190000Y-77402500D01*
G75*
G02*
X165345000Y-77247500I155000J0D01*
G01*
X165655000Y-77247500D01*
G75*
G02*
X165810000Y-77402500I0J-155000D01*
G01*
X165810000Y-77827500D01*
G75*
G02*
X165655000Y-77982500I-155000J0D01*
G01*
G37*
%TD.AperFunction*%
%TD*%
%TO.P,C5,2*%
%TO.N,GNDREF*%
%TA.AperFunction,SMDPad,CuDef*%
G36*
G01*
X172830000Y-77982500D02*
X172520000Y-77982500D01*
G75*
G02*
X172365000Y-77827500I0J155000D01*
G01*
X172365000Y-77402500D01*
G75*
G02*
X172520000Y-77247500I155000J0D01*
G01*
X172830000Y-77247500D01*
G75*
G02*
X172985000Y-77402500I0J-155000D01*
G01*
X172985000Y-77827500D01*
G75*
G02*
X172830000Y-77982500I-155000J0D01*
G01*
G37*
%TD.AperFunction*%
%TO.P,C5,1*%
%TO.N,+3V3*%
%TA.AperFunction,SMDPad,CuDef*%
G36*
G01*
X172830000Y-79117500D02*
X172520000Y-79117500D01*
G75*
G02*
X172365000Y-78962500I0J155000D01*
G01*
X172365000Y-78537500D01*
G75*
G02*
X172520000Y-78382500I155000J0D01*
G01*
X172830000Y-78382500D01*
G75*
G02*
X172985000Y-78537500I0J-155000D01*
G01*
X172985000Y-78962500D01*
G75*
G02*
X172830000Y-79117500I-155000J0D01*
G01*
G37*
%TD.AperFunction*%
%TD*%
%TO.P,C6,2*%
%TO.N,GNDREF*%
%TA.AperFunction,SMDPad,CuDef*%
G36*
G01*
X178905000Y-77382500D02*
X178595000Y-77382500D01*
G75*
G02*
X178440000Y-77227500I0J155000D01*
G01*
X178440000Y-76802500D01*
G75*
G02*
X178595000Y-76647500I155000J0D01*
G01*
X178905000Y-76647500D01*
G75*
G02*
X179060000Y-76802500I0J-155000D01*
G01*
X179060000Y-77227500D01*
G75*
G02*
X178905000Y-77382500I-155000J0D01*
G01*
G37*
%TD.AperFunction*%
%TO.P,C6,1*%
%TO.N,+3V3*%
%TA.AperFunction,SMDPad,CuDef*%
G36*
G01*
X178905000Y-78517500D02*
X178595000Y-78517500D01*
G75*
G02*
X178440000Y-78362500I0J155000D01*
G01*
X178440000Y-77937500D01*
G75*
G02*
X178595000Y-77782500I155000J0D01*
G01*
X178905000Y-77782500D01*
G75*
G02*
X179060000Y-77937500I0J-155000D01*
G01*
X179060000Y-78362500D01*
G75*
G02*
X178905000Y-78517500I-155000J0D01*
G01*
G37*
%TD.AperFunction*%
%TD*%
%TO.P,TP1,1*%
%TO.N,Net-(TP1-Pad1)*%
X167325000Y-84425000D03*
%TD*%
%TO.P,TP2,1*%
%TO.N,Net-(TP2-Pad1)*%
X173375000Y-84350000D03*
%TD*%
%TO.P,TP3,1*%
%TO.N,Net-(TP3-Pad1)*%
X179000000Y-84550000D03*
%TD*%
%TO.P,TP4,1*%
%TO.N,+3V3*%
X161200000Y-74050000D03*
%TD*%
%TO.P,TP5,1*%
%TO.N,Net-(TP3-Pad1)*%
X161200000Y-79300000D03*
%TD*%
%TO.P,TP6,1*%
%TO.N,GNDREF*%
X161200000Y-84425000D03*
%TD*%
D11*
%TO.P,U1,1*%
%TO.N,Net-(TP1-Pad1)*%
X168700000Y-76525000D03*
%TO.P,U1,2*%
%TO.N,GNDREF*%
X167750000Y-76525000D03*
%TO.P,U1,3*%
%TO.N,Net-(C1-Pad1)*%
X166800000Y-76525000D03*
%TO.P,U1,4*%
%TO.N,+3V3*%
X166800000Y-79225000D03*
%TO.P,U1,6*%
%TO.N,GNDREF*%
X168700000Y-79225000D03*
%TO.P,U1,5*%
%TO.N,+3V3*%
X167750000Y-79225000D03*
%TD*%
%TO.P,U2,5*%
%TO.N,+3V3*%
X174925000Y-79225000D03*
%TO.P,U2,6*%
%TO.N,GNDREF*%
X175875000Y-79225000D03*
%TO.P,U2,4*%
%TO.N,+3V3*%
X173975000Y-79225000D03*
%TO.P,U2,3*%
%TO.N,Net-(C2-Pad1)*%
X173975000Y-76525000D03*
%TO.P,U2,2*%
%TO.N,GNDREF*%
X174925000Y-76525000D03*
%TO.P,U2,1*%
%TO.N,Net-(TP2-Pad1)*%
X175875000Y-76525000D03*
%TD*%
%TO.P,U3,1*%
%TO.N,Net-(TP3-Pad1)*%
X182000000Y-75925000D03*
%TO.P,U3,2*%
%TO.N,GNDREF*%
X181050000Y-75925000D03*
%TO.P,U3,3*%
%TO.N,Net-(C3-Pad1)*%
X180100000Y-75925000D03*
%TO.P,U3,4*%
%TO.N,+3V3*%
X180100000Y-78625000D03*
%TO.P,U3,6*%
X182000000Y-78625000D03*
%TO.P,U3,5*%
X181050000Y-78625000D03*
%TD*%
D12*
%TO.N,GNDREF*%
X161200000Y-87400000D03*
X165125000Y-73050000D03*
X170825000Y-73750000D03*
X169532348Y-79057348D03*
%TO.N,+3V3*%
X169800000Y-78050000D03*
X171400000Y-78050000D03*
X177050000Y-77850000D03*
X178700000Y-79200000D03*
%TO.N,Net-(TP3-Pad1)*%
X178350000Y-80375000D03*
X166150000Y-81000000D03*
%TD*%
D13*
%TO.N,GNDREF*%
X175067500Y-76382500D02*
X174925000Y-76525000D01*
X181242500Y-76082500D02*
X181050000Y-76275000D01*
X168700000Y-79225000D02*
X168900000Y-79225000D01*
X181050000Y-74065000D02*
X181010000Y-74025000D01*
X181010000Y-76235000D02*
X181050000Y-76275000D01*
X181010000Y-74025000D02*
X181010000Y-76235000D01*
X175035000Y-76415000D02*
X174925000Y-76525000D01*
X175035000Y-74625000D02*
X175035000Y-76415000D01*
X167860000Y-76415000D02*
X167750000Y-76525000D01*
X167860000Y-74500000D02*
X167860000Y-76415000D01*
X181050000Y-76955000D02*
X181050000Y-75925000D01*
X180974999Y-77030001D02*
X181050000Y-76955000D01*
X178765001Y-77030001D02*
X180974999Y-77030001D01*
X178750000Y-77015000D02*
X178765001Y-77030001D01*
X174925000Y-77555000D02*
X174925000Y-76525000D01*
X174849999Y-77630001D02*
X174925000Y-77555000D01*
X172690001Y-77630001D02*
X174849999Y-77630001D01*
X172675000Y-77615000D02*
X172690001Y-77630001D01*
X166199998Y-77615000D02*
X166434998Y-77850000D01*
X165500000Y-77615000D02*
X166199998Y-77615000D01*
X167750000Y-77555000D02*
X167750000Y-76525000D01*
X167455000Y-77850000D02*
X167750000Y-77555000D01*
X166434998Y-77850000D02*
X167455000Y-77850000D01*
X169364696Y-79225000D02*
X169532348Y-79057348D01*
X168700000Y-79225000D02*
X169364696Y-79225000D01*
%TO.N,Net-(C1-Pad1)*%
X166725000Y-76450000D02*
X166800000Y-76525000D01*
X166725000Y-74500000D02*
X166725000Y-76450000D01*
X166725000Y-69225000D02*
X166700000Y-69200000D01*
X166725000Y-74500000D02*
X166725000Y-69225000D01*
%TO.N,Net-(C2-Pad1)*%
X173932500Y-76482500D02*
X173975000Y-76525000D01*
X173900000Y-76450000D02*
X173975000Y-76525000D01*
X173900000Y-74625000D02*
X173900000Y-76450000D01*
X173900000Y-69250000D02*
X173850000Y-69200000D01*
X173900000Y-74625000D02*
X173900000Y-69250000D01*
%TO.N,Net-(C3-Pad1)*%
X180107500Y-76267500D02*
X180100000Y-76275000D01*
X180100000Y-74250000D02*
X179875000Y-74025000D01*
X180100000Y-76275000D02*
X180100000Y-74250000D01*
X179875000Y-69675000D02*
X180350000Y-69200000D01*
X179875000Y-74025000D02*
X179875000Y-69675000D01*
%TO.N,+3V3*%
X166775000Y-79250000D02*
X166800000Y-79225000D01*
X167007500Y-79432500D02*
X166800000Y-79225000D01*
X167750000Y-79225000D02*
X166800000Y-79225000D01*
X173975000Y-79225000D02*
X174925000Y-79225000D01*
X180100000Y-78975000D02*
X181050000Y-78975000D01*
X181050000Y-78975000D02*
X182000000Y-78975000D01*
X173950000Y-79250000D02*
X173975000Y-79225000D01*
X179625000Y-78150000D02*
X180100000Y-78625000D01*
X178750000Y-78150000D02*
X179625000Y-78150000D01*
X173500000Y-78750000D02*
X173975000Y-79225000D01*
X172675000Y-78750000D02*
X173500000Y-78750000D01*
X166325000Y-78750000D02*
X166800000Y-79225000D01*
X165500000Y-78750000D02*
X166325000Y-78750000D01*
X167750000Y-78195000D02*
X167895000Y-78050000D01*
X167750000Y-79225000D02*
X167750000Y-78195000D01*
X167895000Y-78050000D02*
X169800000Y-78050000D01*
X171400000Y-78050000D02*
X172050000Y-78700000D01*
X172625000Y-78700000D02*
X172675000Y-78750000D01*
X172050000Y-78700000D02*
X172625000Y-78700000D01*
X174925000Y-78195000D02*
X175245000Y-77875000D01*
X174925000Y-79225000D02*
X174925000Y-78195000D01*
X178700000Y-78200000D02*
X178750000Y-78150000D01*
X178700000Y-79200000D02*
X178700000Y-78200000D01*
X177025000Y-77875000D02*
X177050000Y-77850000D01*
X175245000Y-77875000D02*
X177025000Y-77875000D01*
X165500000Y-78750000D02*
X164275000Y-77525000D01*
X164275000Y-77525000D02*
X164275000Y-74550000D01*
X163775000Y-74050000D02*
X161200000Y-74050000D01*
X164275000Y-74550000D02*
X163775000Y-74050000D01*
%TO.N,Net-(TP1-Pad1)*%
X168775000Y-76450000D02*
X168700000Y-76525000D01*
X170525000Y-76450000D02*
X168775000Y-76450000D01*
X167325000Y-84425000D02*
X167325000Y-81250000D01*
X167325000Y-81250000D02*
X167800000Y-80775000D01*
X168840002Y-80775000D02*
X170625000Y-78990002D01*
X167800000Y-80775000D02*
X168840002Y-80775000D01*
X170625000Y-76550000D02*
X170525000Y-76450000D01*
X170625000Y-78990002D02*
X170625000Y-76550000D01*
%TO.N,Net-(TP2-Pad1)*%
X175875000Y-76525000D02*
X177375000Y-76525000D01*
X177775001Y-76925001D02*
X177775001Y-79824999D01*
X177375000Y-76525000D02*
X177775001Y-76925001D01*
X177775001Y-79824999D02*
X175950000Y-81650000D01*
X175950000Y-81650000D02*
X173525000Y-81650000D01*
X173375000Y-81800000D02*
X173375000Y-84350000D01*
X173525000Y-81650000D02*
X173375000Y-81800000D01*
%TO.N,Net-(TP3-Pad1)*%
X183000000Y-77934998D02*
X182315002Y-77250000D01*
X182315002Y-77250000D02*
X182315002Y-77240002D01*
X182000000Y-76925000D02*
X182000000Y-75925000D01*
X182315002Y-77240002D02*
X182000000Y-76925000D01*
X181940002Y-80375000D02*
X178350000Y-80375000D01*
X183000000Y-79315002D02*
X181940002Y-80375000D01*
X183000000Y-77934998D02*
X183000000Y-79315002D01*
X178350000Y-83900000D02*
X179000000Y-84550000D01*
X178350000Y-80375000D02*
X178350000Y-83900000D01*
X166150000Y-81000000D02*
X165575000Y-81000000D01*
X163875000Y-79300000D02*
X161200000Y-79300000D01*
X165575000Y-81000000D02*
X163875000Y-79300000D01*
%TD*%
D14*
%TO.N,GNDREF*%
X158561928Y-72050000D02*
X158561928Y-76050000D01*
X158574188Y-76174482D01*
X158610498Y-76294180D01*
X158669463Y-76404494D01*
X158748815Y-76501185D01*
X158845506Y-76580537D01*
X158955820Y-76639502D01*
X159072841Y-76675000D01*
X158955820Y-76710498D01*
X158845506Y-76769463D01*
X158748815Y-76848815D01*
X158669463Y-76945506D01*
X158610498Y-77055820D01*
X158574188Y-77175518D01*
X158561928Y-77300000D01*
X158561928Y-81300000D01*
X158574188Y-81424482D01*
X158610498Y-81544180D01*
X158669463Y-81654494D01*
X158748815Y-81751185D01*
X158845506Y-81830537D01*
X158905304Y-81862500D01*
X158845506Y-81894463D01*
X158748815Y-81973815D01*
X158669463Y-82070506D01*
X158610498Y-82180820D01*
X158574188Y-82300518D01*
X158561928Y-82425000D01*
X158565000Y-84139250D01*
X158723750Y-84298000D01*
X161073000Y-84298000D01*
X161073000Y-84278000D01*
X161327000Y-84278000D01*
X161327000Y-84298000D01*
X163676250Y-84298000D01*
X163835000Y-84139250D01*
X163838072Y-82425000D01*
X163825812Y-82300518D01*
X163789502Y-82180820D01*
X163730537Y-82070506D01*
X163651185Y-81973815D01*
X163554494Y-81894463D01*
X163494696Y-81862500D01*
X163554494Y-81830537D01*
X163651185Y-81751185D01*
X163730537Y-81654494D01*
X163789502Y-81544180D01*
X163825812Y-81424482D01*
X163838072Y-81300000D01*
X163838072Y-80337873D01*
X165011201Y-81511003D01*
X165034999Y-81540001D01*
X165063997Y-81563799D01*
X165150723Y-81634974D01*
X165282753Y-81705546D01*
X165426014Y-81749003D01*
X165436306Y-81750017D01*
X165473217Y-81786928D01*
X165325000Y-81786928D01*
X165200518Y-81799188D01*
X165080820Y-81835498D01*
X164970506Y-81894463D01*
X164873815Y-81973815D01*
X164794463Y-82070506D01*
X164735498Y-82180820D01*
X164699188Y-82300518D01*
X164686928Y-82425000D01*
X164686928Y-86425000D01*
X164699188Y-86549482D01*
X164735498Y-86669180D01*
X164794463Y-86779494D01*
X164873815Y-86876185D01*
X164970506Y-86955537D01*
X165080820Y-87014502D01*
X165200518Y-87050812D01*
X165325000Y-87063072D01*
X169325000Y-87063072D01*
X169449482Y-87050812D01*
X169569180Y-87014502D01*
X169679494Y-86955537D01*
X169776185Y-86876185D01*
X169855537Y-86779494D01*
X169914502Y-86669180D01*
X169950812Y-86549482D01*
X169963072Y-86425000D01*
X169963072Y-82425000D01*
X169950812Y-82300518D01*
X169914502Y-82180820D01*
X169855537Y-82070506D01*
X169776185Y-81973815D01*
X169679494Y-81894463D01*
X169569180Y-81835498D01*
X169449482Y-81799188D01*
X169325000Y-81786928D01*
X168085000Y-81786928D01*
X168085000Y-81564801D01*
X168114802Y-81535000D01*
X168802680Y-81535000D01*
X168840002Y-81538676D01*
X168877324Y-81535000D01*
X168877335Y-81535000D01*
X168988988Y-81524003D01*
X169132249Y-81480546D01*
X169264278Y-81409974D01*
X169380003Y-81315001D01*
X169403805Y-81285998D01*
X171136009Y-79553796D01*
X171165001Y-79530003D01*
X171188795Y-79501010D01*
X171188799Y-79501006D01*
X171259973Y-79414279D01*
X171259974Y-79414278D01*
X171330546Y-79282249D01*
X171374003Y-79138988D01*
X171377606Y-79102408D01*
X171486200Y-79211002D01*
X171509999Y-79240001D01*
X171625724Y-79334974D01*
X171757753Y-79405546D01*
X171897334Y-79447887D01*
X171959213Y-79523287D01*
X172079393Y-79621915D01*
X172216504Y-79695203D01*
X172365279Y-79740333D01*
X172520000Y-79755572D01*
X172830000Y-79755572D01*
X172984721Y-79740333D01*
X173011928Y-79732080D01*
X173011928Y-80005000D01*
X173024188Y-80129482D01*
X173060498Y-80249180D01*
X173119463Y-80359494D01*
X173198815Y-80456185D01*
X173295506Y-80535537D01*
X173405820Y-80594502D01*
X173525518Y-80630812D01*
X173650000Y-80643072D01*
X174300000Y-80643072D01*
X174424482Y-80630812D01*
X174450000Y-80623071D01*
X174475518Y-80630812D01*
X174600000Y-80643072D01*
X175250000Y-80643072D01*
X175374482Y-80630812D01*
X175400000Y-80623071D01*
X175425518Y-80630812D01*
X175550000Y-80643072D01*
X175589250Y-80640000D01*
X175748000Y-80481250D01*
X175748000Y-80399141D01*
X175780537Y-80359494D01*
X175839502Y-80249180D01*
X175875812Y-80129482D01*
X175888072Y-80005000D01*
X175888072Y-79078000D01*
X176002000Y-79078000D01*
X176002000Y-79098000D01*
X176676250Y-79098000D01*
X176835000Y-78939250D01*
X176835476Y-78862606D01*
X176948061Y-78885000D01*
X177015002Y-78885000D01*
X177015002Y-79510196D01*
X176836108Y-79689090D01*
X176835000Y-79510750D01*
X176676250Y-79352000D01*
X176002000Y-79352000D01*
X176002000Y-80481250D01*
X176022974Y-80502224D01*
X175635199Y-80890000D01*
X173562322Y-80890000D01*
X173524999Y-80886324D01*
X173487676Y-80890000D01*
X173487667Y-80890000D01*
X173376014Y-80900997D01*
X173232753Y-80944454D01*
X173100724Y-81015026D01*
X172984999Y-81109999D01*
X172961196Y-81139003D01*
X172864003Y-81236196D01*
X172834999Y-81259999D01*
X172779871Y-81327174D01*
X172740026Y-81375724D01*
X172713964Y-81424482D01*
X172669454Y-81507754D01*
X172625997Y-81651015D01*
X172619998Y-81711928D01*
X171375000Y-81711928D01*
X171250518Y-81724188D01*
X171130820Y-81760498D01*
X171020506Y-81819463D01*
X170923815Y-81898815D01*
X170844463Y-81995506D01*
X170785498Y-82105820D01*
X170749188Y-82225518D01*
X170736928Y-82350000D01*
X170736928Y-86350000D01*
X170749188Y-86474482D01*
X170785498Y-86594180D01*
X170844463Y-86704494D01*
X170923815Y-86801185D01*
X171020506Y-86880537D01*
X171130820Y-86939502D01*
X171250518Y-86975812D01*
X171375000Y-86988072D01*
X175375000Y-86988072D01*
X175499482Y-86975812D01*
X175619180Y-86939502D01*
X175729494Y-86880537D01*
X175826185Y-86801185D01*
X175905537Y-86704494D01*
X175964502Y-86594180D01*
X176000812Y-86474482D01*
X176013072Y-86350000D01*
X176013072Y-82407465D01*
X176098986Y-82399003D01*
X176242247Y-82355546D01*
X176374276Y-82284974D01*
X176458655Y-82215726D01*
X176410498Y-82305820D01*
X176374188Y-82425518D01*
X176361928Y-82550000D01*
X176361928Y-86550000D01*
X176374188Y-86674482D01*
X176410498Y-86794180D01*
X176469463Y-86904494D01*
X176548815Y-87001185D01*
X176645506Y-87080537D01*
X176755820Y-87139502D01*
X176875518Y-87175812D01*
X177000000Y-87188072D01*
X181000000Y-87188072D01*
X181065000Y-87181670D01*
X181065000Y-87765000D01*
X158260000Y-87765000D01*
X158260000Y-86425000D01*
X158561928Y-86425000D01*
X158574188Y-86549482D01*
X158610498Y-86669180D01*
X158669463Y-86779494D01*
X158748815Y-86876185D01*
X158845506Y-86955537D01*
X158955820Y-87014502D01*
X159075518Y-87050812D01*
X159200000Y-87063072D01*
X160914250Y-87060000D01*
X161073000Y-86901250D01*
X161073000Y-84552000D01*
X161327000Y-84552000D01*
X161327000Y-86901250D01*
X161485750Y-87060000D01*
X163200000Y-87063072D01*
X163324482Y-87050812D01*
X163444180Y-87014502D01*
X163554494Y-86955537D01*
X163651185Y-86876185D01*
X163730537Y-86779494D01*
X163789502Y-86669180D01*
X163825812Y-86549482D01*
X163838072Y-86425000D01*
X163835000Y-84710750D01*
X163676250Y-84552000D01*
X161327000Y-84552000D01*
X161073000Y-84552000D01*
X158723750Y-84552000D01*
X158565000Y-84710750D01*
X158561928Y-86425000D01*
X158260000Y-86425000D01*
X158260000Y-71985000D01*
X158568330Y-71985000D01*
X158561928Y-72050000D01*
%TA.AperFunction,Conductor*%
D15*
G36*
X158561928Y-72050000D02*
G01*
X158561928Y-76050000D01*
X158574188Y-76174482D01*
X158610498Y-76294180D01*
X158669463Y-76404494D01*
X158748815Y-76501185D01*
X158845506Y-76580537D01*
X158955820Y-76639502D01*
X159072841Y-76675000D01*
X158955820Y-76710498D01*
X158845506Y-76769463D01*
X158748815Y-76848815D01*
X158669463Y-76945506D01*
X158610498Y-77055820D01*
X158574188Y-77175518D01*
X158561928Y-77300000D01*
X158561928Y-81300000D01*
X158574188Y-81424482D01*
X158610498Y-81544180D01*
X158669463Y-81654494D01*
X158748815Y-81751185D01*
X158845506Y-81830537D01*
X158905304Y-81862500D01*
X158845506Y-81894463D01*
X158748815Y-81973815D01*
X158669463Y-82070506D01*
X158610498Y-82180820D01*
X158574188Y-82300518D01*
X158561928Y-82425000D01*
X158565000Y-84139250D01*
X158723750Y-84298000D01*
X161073000Y-84298000D01*
X161073000Y-84278000D01*
X161327000Y-84278000D01*
X161327000Y-84298000D01*
X163676250Y-84298000D01*
X163835000Y-84139250D01*
X163838072Y-82425000D01*
X163825812Y-82300518D01*
X163789502Y-82180820D01*
X163730537Y-82070506D01*
X163651185Y-81973815D01*
X163554494Y-81894463D01*
X163494696Y-81862500D01*
X163554494Y-81830537D01*
X163651185Y-81751185D01*
X163730537Y-81654494D01*
X163789502Y-81544180D01*
X163825812Y-81424482D01*
X163838072Y-81300000D01*
X163838072Y-80337873D01*
X165011201Y-81511003D01*
X165034999Y-81540001D01*
X165063997Y-81563799D01*
X165150723Y-81634974D01*
X165282753Y-81705546D01*
X165426014Y-81749003D01*
X165436306Y-81750017D01*
X165473217Y-81786928D01*
X165325000Y-81786928D01*
X165200518Y-81799188D01*
X165080820Y-81835498D01*
X164970506Y-81894463D01*
X164873815Y-81973815D01*
X164794463Y-82070506D01*
X164735498Y-82180820D01*
X164699188Y-82300518D01*
X164686928Y-82425000D01*
X164686928Y-86425000D01*
X164699188Y-86549482D01*
X164735498Y-86669180D01*
X164794463Y-86779494D01*
X164873815Y-86876185D01*
X164970506Y-86955537D01*
X165080820Y-87014502D01*
X165200518Y-87050812D01*
X165325000Y-87063072D01*
X169325000Y-87063072D01*
X169449482Y-87050812D01*
X169569180Y-87014502D01*
X169679494Y-86955537D01*
X169776185Y-86876185D01*
X169855537Y-86779494D01*
X169914502Y-86669180D01*
X169950812Y-86549482D01*
X169963072Y-86425000D01*
X169963072Y-82425000D01*
X169950812Y-82300518D01*
X169914502Y-82180820D01*
X169855537Y-82070506D01*
X169776185Y-81973815D01*
X169679494Y-81894463D01*
X169569180Y-81835498D01*
X169449482Y-81799188D01*
X169325000Y-81786928D01*
X168085000Y-81786928D01*
X168085000Y-81564801D01*
X168114802Y-81535000D01*
X168802680Y-81535000D01*
X168840002Y-81538676D01*
X168877324Y-81535000D01*
X168877335Y-81535000D01*
X168988988Y-81524003D01*
X169132249Y-81480546D01*
X169264278Y-81409974D01*
X169380003Y-81315001D01*
X169403805Y-81285998D01*
X171136009Y-79553796D01*
X171165001Y-79530003D01*
X171188795Y-79501010D01*
X171188799Y-79501006D01*
X171259973Y-79414279D01*
X171259974Y-79414278D01*
X171330546Y-79282249D01*
X171374003Y-79138988D01*
X171377606Y-79102408D01*
X171486200Y-79211002D01*
X171509999Y-79240001D01*
X171625724Y-79334974D01*
X171757753Y-79405546D01*
X171897334Y-79447887D01*
X171959213Y-79523287D01*
X172079393Y-79621915D01*
X172216504Y-79695203D01*
X172365279Y-79740333D01*
X172520000Y-79755572D01*
X172830000Y-79755572D01*
X172984721Y-79740333D01*
X173011928Y-79732080D01*
X173011928Y-80005000D01*
X173024188Y-80129482D01*
X173060498Y-80249180D01*
X173119463Y-80359494D01*
X173198815Y-80456185D01*
X173295506Y-80535537D01*
X173405820Y-80594502D01*
X173525518Y-80630812D01*
X173650000Y-80643072D01*
X174300000Y-80643072D01*
X174424482Y-80630812D01*
X174450000Y-80623071D01*
X174475518Y-80630812D01*
X174600000Y-80643072D01*
X175250000Y-80643072D01*
X175374482Y-80630812D01*
X175400000Y-80623071D01*
X175425518Y-80630812D01*
X175550000Y-80643072D01*
X175589250Y-80640000D01*
X175748000Y-80481250D01*
X175748000Y-80399141D01*
X175780537Y-80359494D01*
X175839502Y-80249180D01*
X175875812Y-80129482D01*
X175888072Y-80005000D01*
X175888072Y-79078000D01*
X176002000Y-79078000D01*
X176002000Y-79098000D01*
X176676250Y-79098000D01*
X176835000Y-78939250D01*
X176835476Y-78862606D01*
X176948061Y-78885000D01*
X177015002Y-78885000D01*
X177015002Y-79510196D01*
X176836108Y-79689090D01*
X176835000Y-79510750D01*
X176676250Y-79352000D01*
X176002000Y-79352000D01*
X176002000Y-80481250D01*
X176022974Y-80502224D01*
X175635199Y-80890000D01*
X173562322Y-80890000D01*
X173524999Y-80886324D01*
X173487676Y-80890000D01*
X173487667Y-80890000D01*
X173376014Y-80900997D01*
X173232753Y-80944454D01*
X173100724Y-81015026D01*
X172984999Y-81109999D01*
X172961196Y-81139003D01*
X172864003Y-81236196D01*
X172834999Y-81259999D01*
X172779871Y-81327174D01*
X172740026Y-81375724D01*
X172713964Y-81424482D01*
X172669454Y-81507754D01*
X172625997Y-81651015D01*
X172619998Y-81711928D01*
X171375000Y-81711928D01*
X171250518Y-81724188D01*
X171130820Y-81760498D01*
X171020506Y-81819463D01*
X170923815Y-81898815D01*
X170844463Y-81995506D01*
X170785498Y-82105820D01*
X170749188Y-82225518D01*
X170736928Y-82350000D01*
X170736928Y-86350000D01*
X170749188Y-86474482D01*
X170785498Y-86594180D01*
X170844463Y-86704494D01*
X170923815Y-86801185D01*
X171020506Y-86880537D01*
X171130820Y-86939502D01*
X171250518Y-86975812D01*
X171375000Y-86988072D01*
X175375000Y-86988072D01*
X175499482Y-86975812D01*
X175619180Y-86939502D01*
X175729494Y-86880537D01*
X175826185Y-86801185D01*
X175905537Y-86704494D01*
X175964502Y-86594180D01*
X176000812Y-86474482D01*
X176013072Y-86350000D01*
X176013072Y-82407465D01*
X176098986Y-82399003D01*
X176242247Y-82355546D01*
X176374276Y-82284974D01*
X176458655Y-82215726D01*
X176410498Y-82305820D01*
X176374188Y-82425518D01*
X176361928Y-82550000D01*
X176361928Y-86550000D01*
X176374188Y-86674482D01*
X176410498Y-86794180D01*
X176469463Y-86904494D01*
X176548815Y-87001185D01*
X176645506Y-87080537D01*
X176755820Y-87139502D01*
X176875518Y-87175812D01*
X177000000Y-87188072D01*
X181000000Y-87188072D01*
X181065000Y-87181670D01*
X181065000Y-87765000D01*
X158260000Y-87765000D01*
X158260000Y-86425000D01*
X158561928Y-86425000D01*
X158574188Y-86549482D01*
X158610498Y-86669180D01*
X158669463Y-86779494D01*
X158748815Y-86876185D01*
X158845506Y-86955537D01*
X158955820Y-87014502D01*
X159075518Y-87050812D01*
X159200000Y-87063072D01*
X160914250Y-87060000D01*
X161073000Y-86901250D01*
X161073000Y-84552000D01*
X161327000Y-84552000D01*
X161327000Y-86901250D01*
X161485750Y-87060000D01*
X163200000Y-87063072D01*
X163324482Y-87050812D01*
X163444180Y-87014502D01*
X163554494Y-86955537D01*
X163651185Y-86876185D01*
X163730537Y-86779494D01*
X163789502Y-86669180D01*
X163825812Y-86549482D01*
X163838072Y-86425000D01*
X163835000Y-84710750D01*
X163676250Y-84552000D01*
X161327000Y-84552000D01*
X161073000Y-84552000D01*
X158723750Y-84552000D01*
X158565000Y-84710750D01*
X158561928Y-86425000D01*
X158260000Y-86425000D01*
X158260000Y-71985000D01*
X158568330Y-71985000D01*
X158561928Y-72050000D01*
G37*
%TD.AperFunction*%
D14*
X168827000Y-79098000D02*
X168847000Y-79098000D01*
X168847000Y-79352000D01*
X168827000Y-79352000D01*
X168827000Y-79372000D01*
X168713072Y-79372000D01*
X168713072Y-79078000D01*
X168827000Y-79078000D01*
X168827000Y-79098000D01*
%TA.AperFunction,Conductor*%
D15*
G36*
X168827000Y-79098000D02*
G01*
X168847000Y-79098000D01*
X168847000Y-79352000D01*
X168827000Y-79352000D01*
X168827000Y-79372000D01*
X168713072Y-79372000D01*
X168713072Y-79078000D01*
X168827000Y-79078000D01*
X168827000Y-79098000D01*
G37*
%TD.AperFunction*%
D14*
X164575518Y-71825812D02*
X164700000Y-71838072D01*
X165965001Y-71838072D01*
X165965000Y-73773309D01*
X165951713Y-73784213D01*
X165853085Y-73904393D01*
X165779797Y-74041504D01*
X165734667Y-74190279D01*
X165719428Y-74345000D01*
X165719428Y-74655000D01*
X165734667Y-74809721D01*
X165779797Y-74958496D01*
X165853085Y-75095607D01*
X165951713Y-75215787D01*
X165965000Y-75226692D01*
X165965000Y-75365481D01*
X165944463Y-75390506D01*
X165885498Y-75500820D01*
X165849188Y-75620518D01*
X165836928Y-75745000D01*
X165836928Y-76612080D01*
X165810000Y-76609428D01*
X165785750Y-76612500D01*
X165627000Y-76771250D01*
X165627000Y-77488000D01*
X165647000Y-77488000D01*
X165647000Y-77742000D01*
X165627000Y-77742000D01*
X165627000Y-77744428D01*
X165569230Y-77744428D01*
X165353000Y-77528199D01*
X165353000Y-77488000D01*
X165373000Y-77488000D01*
X165373000Y-76771250D01*
X165214250Y-76612500D01*
X165190000Y-76609428D01*
X165065518Y-76621688D01*
X165035000Y-76630946D01*
X165035000Y-74587325D01*
X165038676Y-74550000D01*
X165035000Y-74512675D01*
X165035000Y-74512667D01*
X165024003Y-74401014D01*
X164980546Y-74257753D01*
X164909974Y-74125724D01*
X164815001Y-74009999D01*
X164785997Y-73986196D01*
X164338804Y-73539003D01*
X164315001Y-73509999D01*
X164199276Y-73415026D01*
X164067247Y-73344454D01*
X163923986Y-73300997D01*
X163838072Y-73292535D01*
X163838072Y-72050000D01*
X163831670Y-71985000D01*
X163967581Y-71985000D01*
X164000000Y-71988193D01*
X164032419Y-71985000D01*
X164129383Y-71975450D01*
X164253793Y-71937710D01*
X164368450Y-71876425D01*
X164468948Y-71793948D01*
X164469253Y-71793577D01*
X164575518Y-71825812D01*
%TA.AperFunction,Conductor*%
D15*
G36*
X164575518Y-71825812D02*
G01*
X164700000Y-71838072D01*
X165965001Y-71838072D01*
X165965000Y-73773309D01*
X165951713Y-73784213D01*
X165853085Y-73904393D01*
X165779797Y-74041504D01*
X165734667Y-74190279D01*
X165719428Y-74345000D01*
X165719428Y-74655000D01*
X165734667Y-74809721D01*
X165779797Y-74958496D01*
X165853085Y-75095607D01*
X165951713Y-75215787D01*
X165965000Y-75226692D01*
X165965000Y-75365481D01*
X165944463Y-75390506D01*
X165885498Y-75500820D01*
X165849188Y-75620518D01*
X165836928Y-75745000D01*
X165836928Y-76612080D01*
X165810000Y-76609428D01*
X165785750Y-76612500D01*
X165627000Y-76771250D01*
X165627000Y-77488000D01*
X165647000Y-77488000D01*
X165647000Y-77742000D01*
X165627000Y-77742000D01*
X165627000Y-77744428D01*
X165569230Y-77744428D01*
X165353000Y-77528199D01*
X165353000Y-77488000D01*
X165373000Y-77488000D01*
X165373000Y-76771250D01*
X165214250Y-76612500D01*
X165190000Y-76609428D01*
X165065518Y-76621688D01*
X165035000Y-76630946D01*
X165035000Y-74587325D01*
X165038676Y-74550000D01*
X165035000Y-74512675D01*
X165035000Y-74512667D01*
X165024003Y-74401014D01*
X164980546Y-74257753D01*
X164909974Y-74125724D01*
X164815001Y-74009999D01*
X164785997Y-73986196D01*
X164338804Y-73539003D01*
X164315001Y-73509999D01*
X164199276Y-73415026D01*
X164067247Y-73344454D01*
X163923986Y-73300997D01*
X163838072Y-73292535D01*
X163838072Y-72050000D01*
X163831670Y-71985000D01*
X163967581Y-71985000D01*
X164000000Y-71988193D01*
X164032419Y-71985000D01*
X164129383Y-71975450D01*
X164253793Y-71937710D01*
X164368450Y-71876425D01*
X164468948Y-71793948D01*
X164469253Y-71793577D01*
X164575518Y-71825812D01*
G37*
%TD.AperFunction*%
D14*
X182965001Y-67039879D02*
X182939502Y-66955820D01*
X182880537Y-66845506D01*
X182801185Y-66748815D01*
X182704494Y-66669463D01*
X182594180Y-66610498D01*
X182474482Y-66574188D01*
X182350000Y-66561928D01*
X178350000Y-66561928D01*
X178225518Y-66574188D01*
X178105820Y-66610498D01*
X177995506Y-66669463D01*
X177898815Y-66748815D01*
X177819463Y-66845506D01*
X177760498Y-66955820D01*
X177724188Y-67075518D01*
X177711928Y-67200000D01*
X177711928Y-71200000D01*
X177724188Y-71324482D01*
X177760498Y-71444180D01*
X177819463Y-71554494D01*
X177898815Y-71651185D01*
X177995506Y-71730537D01*
X178105820Y-71789502D01*
X178225518Y-71825812D01*
X178350000Y-71838072D01*
X179115001Y-71838072D01*
X179115000Y-73298309D01*
X179101713Y-73309213D01*
X179003085Y-73429393D01*
X178929797Y-73566504D01*
X178884667Y-73715279D01*
X178869428Y-73870000D01*
X178869428Y-74180000D01*
X178884667Y-74334721D01*
X178929797Y-74483496D01*
X179003085Y-74620607D01*
X179101713Y-74740787D01*
X179219410Y-74837377D01*
X179185498Y-74900820D01*
X179149188Y-75020518D01*
X179136928Y-75145000D01*
X179136928Y-76017004D01*
X179060000Y-76009428D01*
X179035750Y-76012500D01*
X178877000Y-76171250D01*
X178877000Y-76888000D01*
X178897000Y-76888000D01*
X178897000Y-77142000D01*
X178877000Y-77142000D01*
X178877000Y-77144428D01*
X178623000Y-77144428D01*
X178623000Y-77142000D01*
X178603000Y-77142000D01*
X178603000Y-76888000D01*
X178623000Y-76888000D01*
X178623000Y-76171250D01*
X178464250Y-76012500D01*
X178440000Y-76009428D01*
X178315518Y-76021688D01*
X178195820Y-76057998D01*
X178085506Y-76116963D01*
X178061481Y-76136680D01*
X177938804Y-76014003D01*
X177915001Y-75984999D01*
X177799276Y-75890026D01*
X177667247Y-75819454D01*
X177523986Y-75775997D01*
X177412333Y-75765000D01*
X177412322Y-75765000D01*
X177375000Y-75761324D01*
X177337678Y-75765000D01*
X176838072Y-75765000D01*
X176838072Y-75745000D01*
X176825812Y-75620518D01*
X176789502Y-75500820D01*
X176730537Y-75390506D01*
X176651185Y-75293815D01*
X176554494Y-75214463D01*
X176444180Y-75155498D01*
X176324482Y-75119188D01*
X176200000Y-75106928D01*
X176013919Y-75106928D01*
X176028312Y-75059482D01*
X176040572Y-74935000D01*
X176037500Y-74910750D01*
X175878750Y-74752000D01*
X175162000Y-74752000D01*
X175162000Y-74772000D01*
X174908000Y-74772000D01*
X174908000Y-74752000D01*
X174905572Y-74752000D01*
X174905572Y-74498000D01*
X174908000Y-74498000D01*
X174908000Y-73838750D01*
X175162000Y-73838750D01*
X175162000Y-74498000D01*
X175878750Y-74498000D01*
X176037500Y-74339250D01*
X176040572Y-74315000D01*
X176028312Y-74190518D01*
X175992002Y-74070820D01*
X175933037Y-73960506D01*
X175853685Y-73863815D01*
X175756994Y-73784463D01*
X175646680Y-73725498D01*
X175526982Y-73689188D01*
X175402500Y-73676928D01*
X175320750Y-73680000D01*
X175162000Y-73838750D01*
X174908000Y-73838750D01*
X174749250Y-73680000D01*
X174667500Y-73676928D01*
X174660000Y-73677667D01*
X174660000Y-71838072D01*
X175850000Y-71838072D01*
X175974482Y-71825812D01*
X176094180Y-71789502D01*
X176204494Y-71730537D01*
X176301185Y-71651185D01*
X176380537Y-71554494D01*
X176439502Y-71444180D01*
X176475812Y-71324482D01*
X176488072Y-71200000D01*
X176488072Y-67200000D01*
X176475812Y-67075518D01*
X176439502Y-66955820D01*
X176380537Y-66845506D01*
X176301185Y-66748815D01*
X176204494Y-66669463D01*
X176094180Y-66610498D01*
X175974482Y-66574188D01*
X175850000Y-66561928D01*
X171850000Y-66561928D01*
X171725518Y-66574188D01*
X171605820Y-66610498D01*
X171495506Y-66669463D01*
X171398815Y-66748815D01*
X171319463Y-66845506D01*
X171260498Y-66955820D01*
X171224188Y-67075518D01*
X171211928Y-67200000D01*
X171211928Y-71200000D01*
X171224188Y-71324482D01*
X171260498Y-71444180D01*
X171319463Y-71554494D01*
X171398815Y-71651185D01*
X171495506Y-71730537D01*
X171605820Y-71789502D01*
X171725518Y-71825812D01*
X171850000Y-71838072D01*
X173140001Y-71838072D01*
X173140000Y-73898309D01*
X173126713Y-73909213D01*
X173028085Y-74029393D01*
X172954797Y-74166504D01*
X172909667Y-74315279D01*
X172894428Y-74470000D01*
X172894428Y-74780000D01*
X172909667Y-74934721D01*
X172954797Y-75083496D01*
X173028085Y-75220607D01*
X173126713Y-75340787D01*
X173140000Y-75351692D01*
X173140000Y-75365481D01*
X173119463Y-75390506D01*
X173060498Y-75500820D01*
X173024188Y-75620518D01*
X173011928Y-75745000D01*
X173011928Y-76612080D01*
X172985000Y-76609428D01*
X172960750Y-76612500D01*
X172802000Y-76771250D01*
X172802000Y-77488000D01*
X172822000Y-77488000D01*
X172822000Y-77742000D01*
X172802000Y-77742000D01*
X172802000Y-77744428D01*
X172548000Y-77744428D01*
X172548000Y-77742000D01*
X172528000Y-77742000D01*
X172528000Y-77488000D01*
X172548000Y-77488000D01*
X172548000Y-76771250D01*
X172389250Y-76612500D01*
X172365000Y-76609428D01*
X172240518Y-76621688D01*
X172120820Y-76657998D01*
X172010506Y-76716963D01*
X171913815Y-76796315D01*
X171834463Y-76893006D01*
X171775498Y-77003320D01*
X171753416Y-77076114D01*
X171701898Y-77054774D01*
X171501939Y-77015000D01*
X171385000Y-77015000D01*
X171385000Y-76587322D01*
X171388676Y-76549999D01*
X171385000Y-76512677D01*
X171385000Y-76512667D01*
X171374003Y-76401014D01*
X171330546Y-76257753D01*
X171259974Y-76125724D01*
X171165001Y-76009999D01*
X171135997Y-75986196D01*
X171088804Y-75939003D01*
X171065001Y-75909999D01*
X170949276Y-75815026D01*
X170817247Y-75744454D01*
X170673986Y-75700997D01*
X170562333Y-75690000D01*
X170562322Y-75690000D01*
X170525000Y-75686324D01*
X170487678Y-75690000D01*
X169657655Y-75690000D01*
X169650812Y-75620518D01*
X169614502Y-75500820D01*
X169555537Y-75390506D01*
X169476185Y-75293815D01*
X169379494Y-75214463D01*
X169269180Y-75155498D01*
X169149482Y-75119188D01*
X169025000Y-75106928D01*
X168788807Y-75106928D01*
X168817002Y-75054180D01*
X168853312Y-74934482D01*
X168865572Y-74810000D01*
X168862500Y-74785750D01*
X168703750Y-74627000D01*
X167987000Y-74627000D01*
X167987000Y-74647000D01*
X167733000Y-74647000D01*
X167733000Y-74627000D01*
X167730572Y-74627000D01*
X167730572Y-74373000D01*
X167733000Y-74373000D01*
X167733000Y-73713750D01*
X167987000Y-73713750D01*
X167987000Y-74373000D01*
X168703750Y-74373000D01*
X168862500Y-74214250D01*
X168865572Y-74190000D01*
X168853312Y-74065518D01*
X168817002Y-73945820D01*
X168758037Y-73835506D01*
X168678685Y-73738815D01*
X168581994Y-73659463D01*
X168471680Y-73600498D01*
X168351982Y-73564188D01*
X168227500Y-73551928D01*
X168145750Y-73555000D01*
X167987000Y-73713750D01*
X167733000Y-73713750D01*
X167574250Y-73555000D01*
X167492500Y-73551928D01*
X167485000Y-73552667D01*
X167485000Y-71838072D01*
X168700000Y-71838072D01*
X168824482Y-71825812D01*
X168944180Y-71789502D01*
X169054494Y-71730537D01*
X169151185Y-71651185D01*
X169230537Y-71554494D01*
X169289502Y-71444180D01*
X169325812Y-71324482D01*
X169338072Y-71200000D01*
X169338072Y-67200000D01*
X169325812Y-67075518D01*
X169289502Y-66955820D01*
X169230537Y-66845506D01*
X169151185Y-66748815D01*
X169054494Y-66669463D01*
X168944180Y-66610498D01*
X168824482Y-66574188D01*
X168700000Y-66561928D01*
X164700000Y-66561928D01*
X164660000Y-66565868D01*
X164660000Y-66160000D01*
X182965001Y-66160000D01*
X182965001Y-67039879D01*
%TA.AperFunction,Conductor*%
D15*
G36*
X182965001Y-67039879D02*
G01*
X182939502Y-66955820D01*
X182880537Y-66845506D01*
X182801185Y-66748815D01*
X182704494Y-66669463D01*
X182594180Y-66610498D01*
X182474482Y-66574188D01*
X182350000Y-66561928D01*
X178350000Y-66561928D01*
X178225518Y-66574188D01*
X178105820Y-66610498D01*
X177995506Y-66669463D01*
X177898815Y-66748815D01*
X177819463Y-66845506D01*
X177760498Y-66955820D01*
X177724188Y-67075518D01*
X177711928Y-67200000D01*
X177711928Y-71200000D01*
X177724188Y-71324482D01*
X177760498Y-71444180D01*
X177819463Y-71554494D01*
X177898815Y-71651185D01*
X177995506Y-71730537D01*
X178105820Y-71789502D01*
X178225518Y-71825812D01*
X178350000Y-71838072D01*
X179115001Y-71838072D01*
X179115000Y-73298309D01*
X179101713Y-73309213D01*
X179003085Y-73429393D01*
X178929797Y-73566504D01*
X178884667Y-73715279D01*
X178869428Y-73870000D01*
X178869428Y-74180000D01*
X178884667Y-74334721D01*
X178929797Y-74483496D01*
X179003085Y-74620607D01*
X179101713Y-74740787D01*
X179219410Y-74837377D01*
X179185498Y-74900820D01*
X179149188Y-75020518D01*
X179136928Y-75145000D01*
X179136928Y-76017004D01*
X179060000Y-76009428D01*
X179035750Y-76012500D01*
X178877000Y-76171250D01*
X178877000Y-76888000D01*
X178897000Y-76888000D01*
X178897000Y-77142000D01*
X178877000Y-77142000D01*
X178877000Y-77144428D01*
X178623000Y-77144428D01*
X178623000Y-77142000D01*
X178603000Y-77142000D01*
X178603000Y-76888000D01*
X178623000Y-76888000D01*
X178623000Y-76171250D01*
X178464250Y-76012500D01*
X178440000Y-76009428D01*
X178315518Y-76021688D01*
X178195820Y-76057998D01*
X178085506Y-76116963D01*
X178061481Y-76136680D01*
X177938804Y-76014003D01*
X177915001Y-75984999D01*
X177799276Y-75890026D01*
X177667247Y-75819454D01*
X177523986Y-75775997D01*
X177412333Y-75765000D01*
X177412322Y-75765000D01*
X177375000Y-75761324D01*
X177337678Y-75765000D01*
X176838072Y-75765000D01*
X176838072Y-75745000D01*
X176825812Y-75620518D01*
X176789502Y-75500820D01*
X176730537Y-75390506D01*
X176651185Y-75293815D01*
X176554494Y-75214463D01*
X176444180Y-75155498D01*
X176324482Y-75119188D01*
X176200000Y-75106928D01*
X176013919Y-75106928D01*
X176028312Y-75059482D01*
X176040572Y-74935000D01*
X176037500Y-74910750D01*
X175878750Y-74752000D01*
X175162000Y-74752000D01*
X175162000Y-74772000D01*
X174908000Y-74772000D01*
X174908000Y-74752000D01*
X174905572Y-74752000D01*
X174905572Y-74498000D01*
X174908000Y-74498000D01*
X174908000Y-73838750D01*
X175162000Y-73838750D01*
X175162000Y-74498000D01*
X175878750Y-74498000D01*
X176037500Y-74339250D01*
X176040572Y-74315000D01*
X176028312Y-74190518D01*
X175992002Y-74070820D01*
X175933037Y-73960506D01*
X175853685Y-73863815D01*
X175756994Y-73784463D01*
X175646680Y-73725498D01*
X175526982Y-73689188D01*
X175402500Y-73676928D01*
X175320750Y-73680000D01*
X175162000Y-73838750D01*
X174908000Y-73838750D01*
X174749250Y-73680000D01*
X174667500Y-73676928D01*
X174660000Y-73677667D01*
X174660000Y-71838072D01*
X175850000Y-71838072D01*
X175974482Y-71825812D01*
X176094180Y-71789502D01*
X176204494Y-71730537D01*
X176301185Y-71651185D01*
X176380537Y-71554494D01*
X176439502Y-71444180D01*
X176475812Y-71324482D01*
X176488072Y-71200000D01*
X176488072Y-67200000D01*
X176475812Y-67075518D01*
X176439502Y-66955820D01*
X176380537Y-66845506D01*
X176301185Y-66748815D01*
X176204494Y-66669463D01*
X176094180Y-66610498D01*
X175974482Y-66574188D01*
X175850000Y-66561928D01*
X171850000Y-66561928D01*
X171725518Y-66574188D01*
X171605820Y-66610498D01*
X171495506Y-66669463D01*
X171398815Y-66748815D01*
X171319463Y-66845506D01*
X171260498Y-66955820D01*
X171224188Y-67075518D01*
X171211928Y-67200000D01*
X171211928Y-71200000D01*
X171224188Y-71324482D01*
X171260498Y-71444180D01*
X171319463Y-71554494D01*
X171398815Y-71651185D01*
X171495506Y-71730537D01*
X171605820Y-71789502D01*
X171725518Y-71825812D01*
X171850000Y-71838072D01*
X173140001Y-71838072D01*
X173140000Y-73898309D01*
X173126713Y-73909213D01*
X173028085Y-74029393D01*
X172954797Y-74166504D01*
X172909667Y-74315279D01*
X172894428Y-74470000D01*
X172894428Y-74780000D01*
X172909667Y-74934721D01*
X172954797Y-75083496D01*
X173028085Y-75220607D01*
X173126713Y-75340787D01*
X173140000Y-75351692D01*
X173140000Y-75365481D01*
X173119463Y-75390506D01*
X173060498Y-75500820D01*
X173024188Y-75620518D01*
X173011928Y-75745000D01*
X173011928Y-76612080D01*
X172985000Y-76609428D01*
X172960750Y-76612500D01*
X172802000Y-76771250D01*
X172802000Y-77488000D01*
X172822000Y-77488000D01*
X172822000Y-77742000D01*
X172802000Y-77742000D01*
X172802000Y-77744428D01*
X172548000Y-77744428D01*
X172548000Y-77742000D01*
X172528000Y-77742000D01*
X172528000Y-77488000D01*
X172548000Y-77488000D01*
X172548000Y-76771250D01*
X172389250Y-76612500D01*
X172365000Y-76609428D01*
X172240518Y-76621688D01*
X172120820Y-76657998D01*
X172010506Y-76716963D01*
X171913815Y-76796315D01*
X171834463Y-76893006D01*
X171775498Y-77003320D01*
X171753416Y-77076114D01*
X171701898Y-77054774D01*
X171501939Y-77015000D01*
X171385000Y-77015000D01*
X171385000Y-76587322D01*
X171388676Y-76549999D01*
X171385000Y-76512677D01*
X171385000Y-76512667D01*
X171374003Y-76401014D01*
X171330546Y-76257753D01*
X171259974Y-76125724D01*
X171165001Y-76009999D01*
X171135997Y-75986196D01*
X171088804Y-75939003D01*
X171065001Y-75909999D01*
X170949276Y-75815026D01*
X170817247Y-75744454D01*
X170673986Y-75700997D01*
X170562333Y-75690000D01*
X170562322Y-75690000D01*
X170525000Y-75686324D01*
X170487678Y-75690000D01*
X169657655Y-75690000D01*
X169650812Y-75620518D01*
X169614502Y-75500820D01*
X169555537Y-75390506D01*
X169476185Y-75293815D01*
X169379494Y-75214463D01*
X169269180Y-75155498D01*
X169149482Y-75119188D01*
X169025000Y-75106928D01*
X168788807Y-75106928D01*
X168817002Y-75054180D01*
X168853312Y-74934482D01*
X168865572Y-74810000D01*
X168862500Y-74785750D01*
X168703750Y-74627000D01*
X167987000Y-74627000D01*
X167987000Y-74647000D01*
X167733000Y-74647000D01*
X167733000Y-74627000D01*
X167730572Y-74627000D01*
X167730572Y-74373000D01*
X167733000Y-74373000D01*
X167733000Y-73713750D01*
X167987000Y-73713750D01*
X167987000Y-74373000D01*
X168703750Y-74373000D01*
X168862500Y-74214250D01*
X168865572Y-74190000D01*
X168853312Y-74065518D01*
X168817002Y-73945820D01*
X168758037Y-73835506D01*
X168678685Y-73738815D01*
X168581994Y-73659463D01*
X168471680Y-73600498D01*
X168351982Y-73564188D01*
X168227500Y-73551928D01*
X168145750Y-73555000D01*
X167987000Y-73713750D01*
X167733000Y-73713750D01*
X167574250Y-73555000D01*
X167492500Y-73551928D01*
X167485000Y-73552667D01*
X167485000Y-71838072D01*
X168700000Y-71838072D01*
X168824482Y-71825812D01*
X168944180Y-71789502D01*
X169054494Y-71730537D01*
X169151185Y-71651185D01*
X169230537Y-71554494D01*
X169289502Y-71444180D01*
X169325812Y-71324482D01*
X169338072Y-71200000D01*
X169338072Y-67200000D01*
X169325812Y-67075518D01*
X169289502Y-66955820D01*
X169230537Y-66845506D01*
X169151185Y-66748815D01*
X169054494Y-66669463D01*
X168944180Y-66610498D01*
X168824482Y-66574188D01*
X168700000Y-66561928D01*
X164700000Y-66561928D01*
X164660000Y-66565868D01*
X164660000Y-66160000D01*
X182965001Y-66160000D01*
X182965001Y-67039879D01*
G37*
%TD.AperFunction*%
D14*
X182965000Y-76825197D02*
X182952468Y-76812665D01*
X182963072Y-76705000D01*
X182963072Y-75145000D01*
X182950812Y-75020518D01*
X182914502Y-74900820D01*
X182855537Y-74790506D01*
X182776185Y-74693815D01*
X182679494Y-74614463D01*
X182569180Y-74555498D01*
X182449482Y-74519188D01*
X182325000Y-74506928D01*
X181988919Y-74506928D01*
X182003312Y-74459482D01*
X182015572Y-74335000D01*
X182012500Y-74310750D01*
X181853750Y-74152000D01*
X181137000Y-74152000D01*
X181137000Y-74172000D01*
X180883000Y-74172000D01*
X180883000Y-74152000D01*
X180880572Y-74152000D01*
X180880572Y-73898000D01*
X180883000Y-73898000D01*
X180883000Y-73238750D01*
X181137000Y-73238750D01*
X181137000Y-73898000D01*
X181853750Y-73898000D01*
X182012500Y-73739250D01*
X182015572Y-73715000D01*
X182003312Y-73590518D01*
X181967002Y-73470820D01*
X181908037Y-73360506D01*
X181828685Y-73263815D01*
X181731994Y-73184463D01*
X181621680Y-73125498D01*
X181501982Y-73089188D01*
X181377500Y-73076928D01*
X181295750Y-73080000D01*
X181137000Y-73238750D01*
X180883000Y-73238750D01*
X180724250Y-73080000D01*
X180642500Y-73076928D01*
X180635000Y-73077667D01*
X180635000Y-71838072D01*
X182350000Y-71838072D01*
X182474482Y-71825812D01*
X182594180Y-71789502D01*
X182704494Y-71730537D01*
X182801185Y-71651185D01*
X182880537Y-71554494D01*
X182939502Y-71444180D01*
X182965001Y-71360122D01*
X182965000Y-76825197D01*
%TA.AperFunction,Conductor*%
D15*
G36*
X182965000Y-76825197D02*
G01*
X182952468Y-76812665D01*
X182963072Y-76705000D01*
X182963072Y-75145000D01*
X182950812Y-75020518D01*
X182914502Y-74900820D01*
X182855537Y-74790506D01*
X182776185Y-74693815D01*
X182679494Y-74614463D01*
X182569180Y-74555498D01*
X182449482Y-74519188D01*
X182325000Y-74506928D01*
X181988919Y-74506928D01*
X182003312Y-74459482D01*
X182015572Y-74335000D01*
X182012500Y-74310750D01*
X181853750Y-74152000D01*
X181137000Y-74152000D01*
X181137000Y-74172000D01*
X180883000Y-74172000D01*
X180883000Y-74152000D01*
X180880572Y-74152000D01*
X180880572Y-73898000D01*
X180883000Y-73898000D01*
X180883000Y-73238750D01*
X181137000Y-73238750D01*
X181137000Y-73898000D01*
X181853750Y-73898000D01*
X182012500Y-73739250D01*
X182015572Y-73715000D01*
X182003312Y-73590518D01*
X181967002Y-73470820D01*
X181908037Y-73360506D01*
X181828685Y-73263815D01*
X181731994Y-73184463D01*
X181621680Y-73125498D01*
X181501982Y-73089188D01*
X181377500Y-73076928D01*
X181295750Y-73080000D01*
X181137000Y-73238750D01*
X180883000Y-73238750D01*
X180724250Y-73080000D01*
X180642500Y-73076928D01*
X180635000Y-73077667D01*
X180635000Y-71838072D01*
X182350000Y-71838072D01*
X182474482Y-71825812D01*
X182594180Y-71789502D01*
X182704494Y-71730537D01*
X182801185Y-71651185D01*
X182880537Y-71554494D01*
X182939502Y-71444180D01*
X182965001Y-71360122D01*
X182965000Y-76825197D01*
G37*
%TD.AperFunction*%
%TD*%
M02*
